<?xml version="1.0" standalone="no"?><!DOCTYPE svg PUBLIC "-//W3C//DTD SVG 1.1//EN" "http://www.w3.org/Graphics/SVG/1.1/DTD/svg11.dtd"><svg width="32" height="32" viewBox="0 0 32 32" version="1.1" xmlns="http://www.w3.org/2000/svg" xmlns:xlink="http://www.w3.org/1999/xlink"><defs><style type="text/css"><![CDATA[
@font-face { font-family: ifont; src: url("//at.alicdn.com/t/font_1442373896_4754455.eot?#iefix") format("embedded-opentype"), url("//at.alicdn.com/t/font_1442373896_4754455.woff") format("woff"), url("//at.alicdn.com/t/font_1442373896_4754455.ttf") format("truetype"), url("//at.alicdn.com/t/font_1442373896_4754455.svg#ifont") format("svg"); }

]]></style></defs><g class="transform-group"><g transform="scale(0.03125, 0.03125)"><path d="M976.55 80.589l1.167-10.479c0-5.822-1.167-11.643-4.669-15.136-4.669-4.657-10.506-6.986-16.34-6.986h-277.797c-11.673 0-21.010 10.479-22.177 22.122v15.136c2.335 12.806 12.839 20.958 24.512 20.958h196.092l-233.442 230.531c-63.029-52.394-144.735-84.993-233.442-84.993-200.761 0-364.171 163.002-364.171 363.261 0 201.423 163.41 364.425 364.171 364.425s364.171-163.002 364.171-363.261c0-90.815-33.85-173.481-88.708-237.516l233.442-231.695-1.167 199.094c0 11.643 9.338 22.122 21.010 22.122h15.174c11.673 0 21.010-6.986 22.177-18.629l-0.001-268.953zM716.261 616.164c0 168.822-137.731 305.045-305.811 305.045-169.246 0-305.811-136.223-305.811-305.045s137.731-305.045 305.811-305.045c169.247 0 305.811 136.223 305.811 305.045v0z" fill="#fff"></path></g></g></svg>