<?xml version="1.0" standalone="no"?><!DOCTYPE svg PUBLIC "-//W3C//DTD SVG 1.1//EN" "http://www.w3.org/Graphics/SVG/1.1/DTD/svg11.dtd"><svg t="1559481226549" class="icon" style="" viewBox="0 0 1024 1024" version="1.1" xmlns="http://www.w3.org/2000/svg" p-id="1139" xmlns:xlink="http://www.w3.org/1999/xlink" width="200" height="200"><defs><style type="text/css"></style></defs><path d="M64 121.6v781h896.2v-781H64z m844.4 51.8v377.3l-280.1-84.3L275 718.9l-159.2-33.6V173.4h792.6zM115.8 850.8V738.2l170.8 36 351.2-251 270.6 81.5v246.1H115.8z" p-id="1140"></path><path d="M336.3 512.8c73.5 0 133.3-59.8 133.3-133.3s-59.8-133.3-133.3-133.3S203 306 203 379.5s59.8 133.3 133.3 133.3z m0-214.9c45 0 81.5 36.6 81.5 81.5S381.3 461 336.3 461s-81.5-36.6-81.5-81.5 36.6-81.6 81.5-81.6z" p-id="1141"></path></svg>