<?xml version="1.0" standalone="no"?><!DOCTYPE svg PUBLIC "-//W3C//DTD SVG 1.1//EN" "http://www.w3.org/Graphics/SVG/1.1/DTD/svg11.dtd"><svg t="1559483540905" class="icon" style="" viewBox="0 0 1024 1024" version="1.1" xmlns="http://www.w3.org/2000/svg" p-id="2719" xmlns:xlink="http://www.w3.org/1999/xlink" width="200" height="200"><defs><style type="text/css"></style></defs><path d="M212.992 526.336 212.992 526.336 212.992 526.336 215.04 526.336 212.992 526.336Z" p-id="2720"></path><path d="M913.408 75.776 110.592 75.776c-18.432 0-32.768 14.336-32.768 32.768l0 802.816c0 18.432 14.336 32.768 32.768 32.768l802.816 0c18.432 0 32.768-14.336 32.768-32.768L946.176 108.544C946.176 90.112 931.84 75.776 913.408 75.776L913.408 75.776zM677.888 141.312 677.888 141.312l108.544 0 0 223.232-108.544 0L677.888 141.312 677.888 141.312zM249.856 143.36 249.856 143.36l362.496 0 0 196.608L249.856 339.968 249.856 143.36 249.856 143.36zM880.64 878.592 880.64 878.592 143.36 878.592l0-737.28 38.912 0 0 231.424c0 18.432 14.336 32.768 30.72 32.768l0 0 0 0 593.92 0c10.24 0 20.48-10.24 20.48-20.48L827.392 141.312 880.64 141.312 880.64 878.592 880.64 878.592zM808.96 514.048 808.96 514.048 215.04 514.048c-10.24 0-20.48 10.24-20.48 20.48l0 278.528c0 10.24 8.192 20.48 20.48 20.48l591.872 0c10.24 0 20.48-8.192 20.48-20.48L827.392 534.528C827.392 524.288 819.2 514.048 808.96 514.048L808.96 514.048zM788.48 792.576 788.48 792.576l-552.96 0L235.52 555.008l552.96 0L788.48 792.576 788.48 792.576z" p-id="2721"></path></svg>